<?xml version="1.0" encoding="utf-8"?>
<!-- Generator: Adobe Illustrator 25.4.1, SVG Export Plug-In . SVG Version: 6.00 Build 0)  -->
<svg version="1.1" id="Capa_1" xmlns="http://www.w3.org/2000/svg" xmlns:xlink="http://www.w3.org/1999/xlink" x="0px" y="0px"
	 viewBox="0 0 21 19" style="enable-background:new 0 0 21 19;" xml:space="preserve">
<style type="text/css">
	.st0{fill:#2E2E2E;}
</style>
<path class="st0" d="M19.4,9.8c2.2-2.2,2.2-5.9,0-8.1c-2.2-2.2-5.7-2.2-7.8,0l-1.1,1.1L9.4,1.7c-2.2-2.3-5.7-2.3-7.8,0
	C0.6,2.8,0,4.2,0,5.7s0.6,3,1.6,4.1l8.9,9.2L19.4,9.8z M1.4,5.7c0-1.2,0.4-2.2,1.2-3c0.8-0.8,1.9-1.3,2.9-1.3s2.1,0.4,2.9,1.3
	l2.1,2.1l2.1-2.1c1.6-1.7,4.2-1.7,5.8,0c0.8,0.8,1.2,1.9,1.2,3c0,1.2-0.4,2.2-1.2,3l-7.9,8.2L2.6,8.8C1.8,7.9,1.4,6.9,1.4,5.7z"/>
</svg>
