<svg xmlns="http://www.w3.org/2000/svg" viewBox="0 0 171.05 25.32"><defs><style>.cls-1{fill:#fff;}</style></defs><g id="Capa_2" data-name="Capa 2"><g id="Capa_1-2" data-name="Capa 1"><path class="cls-1" d="M0,25,7.34,3.83h4.78L19.62,25H15.49L13.7,19.75H5.84L4.12,25ZM6.84,16.7h5.83L11.75,14c-.31-1-.63-2.05-1-3.24s-.69-2.5-1.09-4c-.38,1.47-.72,2.81-1,4S8,13.06,7.73,14Z"/><path class="cls-1" d="M24.4,3.83V25H20.73V3.83Z"/><path class="cls-1" d="M26.76,25V9.12h3.55v2.65h.17A3.92,3.92,0,0,1,32,9.65a4.09,4.09,0,0,1,2.42-.75,9.59,9.59,0,0,1,1.34.1v3.4a6.3,6.3,0,0,0-.74-.12,6.82,6.82,0,0,0-1-.07,3.58,3.58,0,0,0-2.55,1,3.28,3.28,0,0,0-1,2.48V25Z"/><path class="cls-1" d="M43,25.32a8,8,0,0,1-4.1-1,6.78,6.78,0,0,1-2.64-2.84,9.55,9.55,0,0,1-.92-4.32,9.57,9.57,0,0,1,.91-4.29A7,7,0,0,1,38.86,10a7.32,7.32,0,0,1,3.93-1,7.69,7.69,0,0,1,3.56.84A6.42,6.42,0,0,1,49,12.38a9.21,9.21,0,0,1,1,4.55v1.16H39a4.58,4.58,0,0,0,1.18,3.22,3.89,3.89,0,0,0,2.87,1.11,3.94,3.94,0,0,0,2.08-.52,2.93,2.93,0,0,0,1.24-1.54l3.37.7a5.5,5.5,0,0,1-2.34,3.09A7.79,7.79,0,0,1,43,25.32Zm-4-9.74h7.39a4.69,4.69,0,0,0-1.08-2.74,3.26,3.26,0,0,0-2.55-1,3.43,3.43,0,0,0-2.66,1.09A4.41,4.41,0,0,0,39,15.58Z"/><path class="cls-1" d="M57.42,25.28a6,6,0,0,1-3.33-1,6.38,6.38,0,0,1-2.32-2.79,10.48,10.48,0,0,1-.85-4.45,10.43,10.43,0,0,1,.86-4.46,6.29,6.29,0,0,1,2.34-2.76,6,6,0,0,1,3.29-.94,5,5,0,0,1,2.31.47,4.41,4.41,0,0,1,1.41,1.14,7.49,7.49,0,0,1,.81,1.21h.15V3.83h3.67V25h-3.6V22.48h-.22a8,8,0,0,1-.83,1.22,4.32,4.32,0,0,1-1.44,1.11A4.81,4.81,0,0,1,57.42,25.28Zm1-3a3.15,3.15,0,0,0,2.76-1.43,6.51,6.51,0,0,0,1-3.74,6.44,6.44,0,0,0-1-3.71,3.45,3.45,0,0,0-5.58,0,6.6,6.6,0,0,0-.95,3.67,6.65,6.65,0,0,0,1,3.7A3.11,3.11,0,0,0,58.43,22.24Z"/><path class="cls-1" d="M75.08,25.32a8,8,0,0,1-4.1-1,6.78,6.78,0,0,1-2.64-2.84,9.55,9.55,0,0,1-.92-4.32,9.57,9.57,0,0,1,.91-4.29A6.86,6.86,0,0,1,70.91,10a7.29,7.29,0,0,1,3.93-1,7.71,7.71,0,0,1,3.56.84A6.4,6.4,0,0,1,81,12.38a9.1,9.1,0,0,1,1,4.55v1.16h-11a4.58,4.58,0,0,0,1.18,3.22,3.87,3.87,0,0,0,2.87,1.11,3.94,3.94,0,0,0,2.08-.52,2.87,2.87,0,0,0,1.23-1.54l3.38.7a5.5,5.5,0,0,1-2.34,3.09A7.79,7.79,0,0,1,75.08,25.32Zm-4-9.74h7.4a4.83,4.83,0,0,0-1.08-2.74,3.26,3.26,0,0,0-2.55-1,3.43,3.43,0,0,0-2.66,1.09A4.48,4.48,0,0,0,71.08,15.58Z"/><path class="cls-1" d="M89.47,25.28a6,6,0,0,1-3.33-1,6.38,6.38,0,0,1-2.32-2.79A10.48,10.48,0,0,1,83,17.08a10.43,10.43,0,0,1,.86-4.46,6.33,6.33,0,0,1,2.33-2.76,6,6,0,0,1,3.3-.94,5,5,0,0,1,2.3.47,4.46,4.46,0,0,1,1.42,1.14A7.49,7.49,0,0,1,94,11.74h.15V3.83h3.67V25h-3.6V22.48H94a7.46,7.46,0,0,1-.84,1.22,4.18,4.18,0,0,1-1.43,1.11A4.87,4.87,0,0,1,89.47,25.28Zm1-3a3.16,3.16,0,0,0,2.77-1.43,6.51,6.51,0,0,0,1-3.74,6.44,6.44,0,0,0-1-3.71A3.16,3.16,0,0,0,90.47,12a3.13,3.13,0,0,0-2.8,1.44,6.6,6.6,0,0,0-1,3.67,6.73,6.73,0,0,0,1,3.7A3.13,3.13,0,0,0,90.47,22.24Z"/><path class="cls-1" d="M107,25.32a7.5,7.5,0,0,1-4-1,6.93,6.93,0,0,1-2.62-2.87,9.37,9.37,0,0,1-.92-4.28,9.48,9.48,0,0,1,.92-4.32A6.84,6.84,0,0,1,103,9.94a8.31,8.31,0,0,1,8,0,6.84,6.84,0,0,1,2.62,2.88,9.48,9.48,0,0,1,.94,4.32,9.37,9.37,0,0,1-.94,4.28A6.93,6.93,0,0,1,111,24.29,7.5,7.5,0,0,1,107,25.32Zm0-3a3.28,3.28,0,0,0,2.13-.69,4.25,4.25,0,0,0,1.27-1.88,7.74,7.74,0,0,0,.42-2.62,7.88,7.88,0,0,0-.42-2.65,4.21,4.21,0,0,0-1.27-1.87,3.58,3.58,0,0,0-4.25,0,4.2,4.2,0,0,0-1.26,1.87,7.88,7.88,0,0,0-.42,2.65,7.74,7.74,0,0,0,.42,2.62,4.23,4.23,0,0,0,1.26,1.88A3.25,3.25,0,0,0,107,22.32Z"/><path class="cls-1" d="M116.22,25V9.12h3.55v2.65h.17a3.92,3.92,0,0,1,1.48-2.12,4.08,4.08,0,0,1,2.41-.75,9.48,9.48,0,0,1,1.34.1v3.4a5.71,5.71,0,0,0-.73-.12,6.82,6.82,0,0,0-1-.07,3.54,3.54,0,0,0-2.55,1,3.29,3.29,0,0,0-1,2.48V25Z"/><path class="cls-1" d="M129.44,8a2.13,2.13,0,0,1-1.19-.35,2.48,2.48,0,0,1-.82-1A4,4,0,0,1,127.12,5a4,4,0,0,1,.33-1.69,2.3,2.3,0,0,1,.84-1,2,2,0,0,1,1.16-.34,1.72,1.72,0,0,1,.8.18,1.55,1.55,0,0,1,.52.42,2.27,2.27,0,0,1,.29.48h.05v-3h1.53l0,7.89h-1.5V7h-.07a2.16,2.16,0,0,1-.31.48,1.64,1.64,0,0,1-.52.4A1.7,1.7,0,0,1,129.44,8Zm.47-1.27a1,1,0,0,0,.9-.49A2.32,2.32,0,0,0,131.14,5a2.32,2.32,0,0,0-.32-1.29,1.09,1.09,0,0,0-1.81,0A2.32,2.32,0,0,0,128.69,5,2.42,2.42,0,0,0,129,6.27,1,1,0,0,0,129.91,6.77Z"/><path class="cls-1" d="M136.35,8.08a3,3,0,0,1-1.5-.37,2.55,2.55,0,0,1-1-1.06A3.72,3.72,0,0,1,133.55,5a3.57,3.57,0,0,1,.35-1.61,2.53,2.53,0,0,1,.95-1.07A2.64,2.64,0,0,1,136.3,2a2.81,2.81,0,0,1,1.35.33,2.44,2.44,0,0,1,1,1A3.67,3.67,0,0,1,139,5v.45l-3.9,0a1.62,1.62,0,0,0,.39,1.1,1.23,1.23,0,0,0,.93.37,1.18,1.18,0,0,0,.69-.17,1,1,0,0,0,.41-.52l1.39.27A2,2,0,0,1,138,7.64,2.86,2.86,0,0,1,136.35,8.08Zm-1.27-3.66h2.41a1.57,1.57,0,0,0-.35-.92,1,1,0,0,0-.83-.34,1.09,1.09,0,0,0-.87.35A1.47,1.47,0,0,0,135.08,4.42Z"/><path class="cls-1" d="M145.52,8.1a3.42,3.42,0,0,1-1.81-.48,3.39,3.39,0,0,1-1.25-1.39A4.86,4.86,0,0,1,142,4a4.78,4.78,0,0,1,.47-2.19A3.31,3.31,0,0,1,145.55,0a3.5,3.5,0,0,1,1.56.34,2.94,2.94,0,0,1,1.14,1,3.19,3.19,0,0,1,.55,1.51h-1.57a1.56,1.56,0,0,0-.55-1,1.87,1.87,0,0,0-2.54.31,3.07,3.07,0,0,0-.55,1.94,3.06,3.06,0,0,0,.54,2,1.76,1.76,0,0,0,1.42.67,1.71,1.71,0,0,0,1.1-.36,1.59,1.59,0,0,0,.58-1h1.57a3.25,3.25,0,0,1-.5,1.37,3.09,3.09,0,0,1-1.12,1A3.16,3.16,0,0,1,145.52,8.1Z"/><path class="cls-1" d="M149.77,8l0-7.89h1.55V3.31l3.31,0V.14h1.56l0,7.9h-1.56V4.67h-3.3V8Z"/><path class="cls-1" d="M159,.15l0,7.9h-1.55l0-7.89Z"/><path class="cls-1" d="M160.2,8.05l0-7.89h1.55l0,6.56H165V8.07Z"/><path class="cls-1" d="M166,8.07l0-7.89,5.07,0V1.54l-3.53,0V3.43h3.26V4.76h-3.26v2H171V8.09Z"/></g></g></svg>